<?xml version="1.0" encoding="UTF-8"?>
<svg width="300px" height="85px" viewBox="0 0 300 85" version="1.1" xmlns="http://www.w3.org/2000/svg" xmlns:xlink="http://www.w3.org/1999/xlink">
    <!-- Generator: Sketch 64 (93537) - https://sketch.com -->
    <title>Group 48</title>
    <desc>Created with Sketch.</desc>
    <defs>
        <polygon id="path-1" points="0 0.00645614035 83.0175349 0.00645614035 83.0175349 83.5087719 0 83.5087719"></polygon>
        <polygon id="path-3" points="0.266023256 0.343438596 16.9730233 0.343438596 16.9730233 36.3672982 0.266023256 36.3672982"></polygon>
    </defs>
    <g id="Page-1" stroke="none" stroke-width="1" fill="none" fill-rule="evenodd">
        <g id="Desktop-HD" transform="translate(-177.000000, -6325.000000)">
            <g id="Group-48" transform="translate(177.000000, 6325.000000)">
                <g id="Group-47">
                    <g id="Group-3" transform="translate(0.000000, 0.695439)">
                        <mask id="mask-2" fill="white">
                            <use xlink:href="#path-1"></use>
                        </mask>
                        <g id="Clip-2"></g>
                        <path d="M41.5086977,0.00645614035 C18.6214884,0.00645614035 -0.000139534884,18.7362807 -0.000139534884,41.7573333 C-0.000139534884,64.7790877 18.6214884,83.5089123 41.5086977,83.5089123 C64.395907,83.5089123 83.0175349,64.7790877 83.0175349,41.7573333 C83.0175349,18.7362807 64.395907,0.00645614035 41.5086977,0.00645614035" id="Fill-1" fill="#3BA361" mask="url(#mask-2)"></path>
                    </g>
                    <path d="M41.5086977,5.63164912 C21.3228837,5.63164912 4.90102326,22.1502456 4.90102326,42.4527018 C4.90102326,62.7572632 21.3228837,79.2758596 41.5086977,79.2758596 C61.6945116,79.2758596 78.1163721,62.7572632 78.1163721,42.4527018 C78.1163721,22.1502456 61.6945116,5.63164912 41.5086977,5.63164912" id="Fill-4" fill="#142725"></path>
                    <path d="M41.5086977,5.63164912 C21.3228837,5.63164912 4.90102326,22.1502456 4.90102326,42.4527018 C4.90102326,62.7572632 21.3228837,79.2758596 41.5086977,79.2758596 C61.6945116,79.2758596 78.1163721,62.7572632 78.1163721,42.4527018 C78.1163721,22.1502456 61.6945116,5.63164912 41.5086977,5.63164912" id="Fill-6" fill="#142725"></path>
                    <path d="M71.0286977,64.3233684 L56.0119535,64.3233684 C52.9652093,64.3233684 50.6189302,63.5156491 49.0352093,61.9233684 C47.4486977,60.3289825 46.6791628,58.4412632 46.6791628,56.1528421 L46.6791628,32.9738947 L63.6096279,32.9738947 L63.6096279,24.6517895 L46.4845116,24.6517895 L46.4845116,10.9324912 L22.6652093,10.9324912 C18.9814884,13.1275789 15.712186,15.9500351 13.003814,19.256 L38.210093,19.256 L38.210093,42.4363509 C38.210093,44.7233684 37.4398605,46.610386 35.8540465,48.2047719 C34.2710233,49.7984561 31.9226512,50.6047719 28.8773023,50.6047719 L19.9749767,50.6047719 L19.9749767,58.9500351 L28.8773023,58.9500351 L29.413814,58.9275789 L29.413814,58.9212632 C32.8442791,58.8496842 35.8652093,58.0644211 38.4089302,56.5872281 C38.510093,60.9170526 40.1293953,64.6889825 43.2228837,67.7998596 C46.310093,70.9072281 50.4305581,72.5338947 55.4761395,72.6405614 L62.7124186,72.6567018 C65.9063721,70.3444211 68.7173023,67.5282807 71.0286977,64.3233684" id="Fill-8" fill="#FEFEFE"></path>
                    <path d="M96.000907,40.0508772 C96.300907,40.0838596 96.6176512,40.1007018 96.9511395,40.1007018 L97.9027674,40.1007018 C98.7685814,40.1007018 99.5102093,39.8831579 100.127651,39.4466667 C100.744395,39.0115789 101.052767,38.1063158 101.052767,36.7308772 L101.052767,9.86280702 L106.555326,9.86280702 L106.555326,36.3273684 C106.555326,38.1063158 106.337651,39.5645614 105.905093,40.7042105 C105.47114,41.8452632 104.887186,42.7421053 104.154628,43.3968421 C103.421372,44.0501754 102.579279,44.5119298 101.627651,44.78 C100.677419,45.0487719 99.6846279,45.1821053 98.6527674,45.1821053 L97.3013721,45.1821053 C96.9016047,45.1821053 96.4676512,45.1491228 96.000907,45.0817544 L96.000907,40.0508772 Z" id="Fill-10" fill="#3BA361"></path>
                    <path d="M121.560698,33.9118596 L126.863023,33.9118596 L124.212558,16.1020351 L121.560698,33.9118596 Z M134.116047,45.0816842 L128.563953,45.0816842 L127.613721,38.6922105 L120.860233,38.6922105 L119.911395,45.0816842 L114.85814,45.0816842 L120.461163,9.86273684 L128.514419,9.86273684 L134.116047,45.0816842 Z" id="Fill-12" fill="#3BA361"></path>
                    <polygon id="Fill-14" fill="#3BA361" points="145.370233 33.4088421 138.418605 9.86287719 144.17093 9.86287719 148.371628 25.9127018 152.573023 9.86287719 157.825814 9.86287719 150.872791 33.4088421 150.872791 45.0818246 145.370233 45.0818246"></polygon>
                    <polygon id="Fill-16" fill="#3BA361" points="164.428186 9.86308772 181.434698 9.86308772 181.434698 14.8946667 175.682372 14.8946667 175.682372 45.0820351 170.179814 45.0820351 170.179814 14.8946667 164.428186 14.8946667"></polygon>
                    <polygon id="Fill-18" fill="#3BA361" points="195.340465 24.7054737 202.893488 24.7054737 202.893488 29.7363509 195.340465 29.7363509 195.340465 40.0507368 204.844186 40.0507368 204.844186 45.081614 189.838605 45.081614 189.838605 9.86336842 204.844186 9.86336842 204.844186 14.8949474 195.340465 14.8949474"></polygon>
                    <polygon id="Fill-20" fill="#3BA361" points="219.750209 24.7054737 227.302535 24.7054737 227.302535 29.7363509 219.750209 29.7363509 219.750209 40.0507368 229.25393 40.0507368 229.25393 45.081614 214.247651 45.081614 214.247651 9.86336842 229.25393 9.86336842 229.25393 14.8949474 219.750209 14.8949474"></polygon>
                    <path d="M243.708907,36.9820351 C243.708907,38.2557193 243.966349,39.1539649 244.484023,39.6732632 C245.001698,40.1932632 245.693093,40.4522105 246.560302,40.4522105 C247.426814,40.4522105 248.118907,40.1932632 248.636581,39.6732632 C249.15286,39.1539649 249.411698,38.2557193 249.411698,36.9820351 L249.411698,17.9630877 C249.411698,16.6887018 249.15286,15.7918596 248.636581,15.2718596 C248.118907,14.7518596 247.426814,14.4915088 246.560302,14.4915088 C245.693093,14.4915088 245.001698,14.7518596 244.484023,15.2718596 C243.966349,15.7918596 243.708907,16.6887018 243.708907,17.9630877 L243.708907,36.9820351 Z M238.206349,18.3146667 C238.206349,15.4655439 238.924256,13.2760702 240.357279,11.7497544 C241.791,10.2234386 243.859605,9.45992982 246.560302,9.45992982 C249.261698,9.45992982 251.328907,10.2234386 252.763326,11.7497544 C254.196349,13.2760702 254.913558,15.4655439 254.913558,18.3146667 L254.913558,36.6290526 C254.913558,39.4809825 254.196349,41.6690526 252.763326,43.1953684 C251.328907,44.7209825 249.261698,45.4837895 246.560302,45.4837895 C243.859605,45.4837895 241.791,44.7209825 240.357279,43.1953684 C238.924256,41.6690526 238.206349,39.4809825 238.206349,36.6290526 L238.206349,18.3146667 Z" id="Fill-22" fill="#3BA361"></path>
                    <path d="M262.966535,40.0508772 C263.266535,40.0838596 263.583279,40.1007018 263.916767,40.1007018 L264.867698,40.1007018 C265.734209,40.1007018 266.475837,39.8831579 267.093279,39.4466667 C267.710023,39.0115789 268.018395,38.1063158 268.018395,36.7308772 L268.018395,9.86280702 L273.520953,9.86280702 L273.520953,36.3273684 C273.520953,38.1063158 273.303279,39.5645614 272.870721,40.7042105 C272.436767,41.8452632 271.852814,42.7421053 271.120953,43.3968421 C270.387,44.0501754 269.544907,44.5119298 268.593279,44.78 C267.643047,45.0487719 266.650256,45.1821053 265.618395,45.1821053 L264.267,45.1821053 C263.867233,45.1821053 263.433279,45.1491228 262.966535,45.0817544 L262.966535,40.0508772 Z" id="Fill-24" fill="#3BA361"></path>
                    <g id="Group-28" transform="translate(282.558140, 9.116491)">
                        <mask id="mask-4" fill="white">
                            <use xlink:href="#path-3"></use>
                        </mask>
                        <g id="Clip-27"></g>
                        <path d="M5.7685814,27.8655439 C5.7685814,29.1392281 6.02602326,30.0374737 6.54369767,30.5567719 C7.06137209,31.0767719 7.75276744,31.3357193 8.61997674,31.3357193 C9.48648837,31.3357193 10.1778837,31.0767719 10.6955581,30.5567719 C11.2118372,30.0374737 11.4706744,29.1392281 11.4706744,27.8655439 L11.4706744,8.84659649 C11.4706744,7.57221053 11.2118372,6.67536842 10.6955581,6.15536842 C10.1778837,5.63536842 9.48648837,5.37501754 8.61997674,5.37501754 C7.75276744,5.37501754 7.06137209,5.63536842 6.54369767,6.15536842 C6.02602326,6.67536842 5.7685814,7.57221053 5.7685814,8.84659649 L5.7685814,27.8655439 Z M0.266023256,9.19817544 C0.266023256,6.34905263 0.983232558,4.15957895 2.41695349,2.63326316 C3.85067442,1.10694737 5.9185814,0.343438596 8.61997674,0.343438596 C11.3213721,0.343438596 13.3885814,1.10694737 14.823,2.63326316 C16.2560233,4.15957895 16.9732326,6.34905263 16.9732326,9.19817544 L16.9732326,27.5125614 C16.9732326,30.3644912 16.2560233,32.5525614 14.823,34.0788772 C13.3885814,35.6044912 11.3213721,36.3672982 8.61997674,36.3672982 C5.9185814,36.3672982 3.85067442,35.6044912 2.41695349,34.0788772 C0.983232558,32.5525614 0.266023256,30.3644912 0.266023256,27.5125614 L0.266023256,9.19817544 Z" id="Fill-26" fill="#3BA361" mask="url(#mask-4)"></path>
                    </g>
                    <polygon id="Fill-29" fill="#FFFFFF" points="99.2794186 56.1103158 99.2794186 63.4169825 103.110349 63.4169825 103.110349 65.2787368 99.2794186 65.2787368 99.2794186 73.8913684 97.4152326 73.8913684 97.4152326 54.2485614 103.881977 54.2485614 103.881977 56.1103158"></polygon>
                    <path d="M121.77907,55.8646316 C121.35,55.8646316 121.009535,55.937614 120.756977,56.0842807 C120.503721,56.2309474 120.311163,56.449193 120.178605,56.737614 C120.045349,57.0267368 119.959535,57.3825263 119.921163,57.8042807 C119.882791,58.2267368 119.863256,58.7144561 119.863256,59.2660351 L119.863256,68.8744561 C119.863256,69.3909474 119.877907,69.8590175 119.907907,70.2772632 C119.937907,70.6955088 120.017442,71.049193 120.146512,71.337614 C120.274884,71.6267368 120.467442,71.8505965 120.724884,72.0098947 C120.981628,72.1698947 121.333256,72.249193 121.77907,72.249193 L121.791628,72.249193 C122.22,72.249193 122.561163,72.1762105 122.813721,72.0295439 C123.066977,71.8828772 123.259535,71.6653333 123.392791,71.3762105 C123.525349,71.0877895 123.611163,70.732 123.649535,70.3095439 C123.687907,69.8870877 123.707442,69.4000702 123.707442,68.8477895 L123.707442,59.2527018 C123.707442,58.7355088 123.69,58.2681404 123.655814,57.8498947 C123.621628,57.4316491 123.54,57.0758596 123.411628,56.7832281 C123.283256,56.4898947 123.092093,56.2632281 122.839535,56.1039298 C122.586977,55.9446316 122.237442,55.8646316 121.791628,55.8646316 L121.77907,55.8646316 Z M121.77907,54.0155088 L121.791628,54.0021754 C122.614884,54.0021754 123.274884,54.1425263 123.771628,54.4225263 C124.268372,54.7032281 124.652791,55.0821754 124.922093,55.5607719 C125.192791,56.0393684 125.37,56.5951579 125.455814,57.2288421 C125.541628,57.8625263 125.584884,58.5284912 125.584884,59.2274386 L125.584884,68.8744561 C125.584884,69.5979649 125.539535,70.2772632 125.449535,70.9109474 C125.359535,71.5446316 125.179535,72.0983158 124.909535,72.5727018 C124.639535,73.046386 124.255814,73.4218246 123.75907,73.697614 C123.261628,73.9734035 122.605814,74.1116491 121.791628,74.1116491 L121.77907,74.0983158 L121.77907,74.1116491 C120.955814,74.1116491 120.296512,73.9712982 119.79907,73.6912982 C119.301628,73.4112982 118.92,73.0316491 118.654884,72.5530526 C118.38907,72.0744561 118.213256,71.5186667 118.127442,70.8849825 C118.042326,70.2512982 117.99907,69.5853333 117.99907,68.8870877 L117.99907,59.2400702 C117.99907,58.5158596 118.042326,57.8365614 118.127442,57.2028772 C118.213256,56.569193 118.391163,56.0155088 118.661163,55.5418246 C118.931163,55.0674386 119.314884,54.6927018 119.811628,54.4162105 C120.30907,54.1404211 120.964884,54.0021754 121.77907,54.0021754 L121.77907,54.0155088 Z" id="Fill-31" fill="#FFFFFF"></path>
                    <path d="M147.955465,54.2483509 L147.955465,68.9901053 C147.955465,69.7318596 147.908721,70.4153684 147.813837,71.0399298 C147.719651,71.665193 147.537558,72.2041404 147.267558,72.6567719 C146.997558,73.1094035 146.616628,73.465193 146.123372,73.7234386 C145.630116,73.982386 144.985465,74.1115088 144.188721,74.1115088 C143.391279,74.1115088 142.743837,73.982386 142.247093,73.7234386 C141.749651,73.465193 141.366628,73.1094035 141.096628,72.6567719 C140.826628,72.2041404 140.644535,71.665193 140.550349,71.0399298 C140.455465,70.4153684 140.408721,69.7318596 140.408721,68.9901053 L140.408721,54.2483509 L142.272907,54.2483509 L142.272907,68.9129123 C142.272907,69.4125614 142.287558,69.868 142.317558,70.2771228 C142.347558,70.6869474 142.427093,71.0378246 142.555465,71.3311579 C142.684535,71.6244912 142.875,71.8504561 143.128256,72.0104561 C143.380116,72.1697544 143.733837,72.2490526 144.188721,72.2490526 C144.633837,72.2490526 144.985465,72.1697544 145.242907,72.0104561 C145.499651,71.8504561 145.690116,71.6244912 145.815,71.3311579 C145.939186,71.0378246 146.01593,70.6869474 146.046628,70.2771228 C146.076628,69.868 146.091279,69.4125614 146.091279,68.9129123 L146.091279,54.2483509 L147.955465,54.2483509 Z" id="Fill-33" fill="#FFFFFF"></path>
                    <polygon id="Fill-35" fill="#FFFFFF" points="163.204186 73.8916491 163.204186 54.2221754 165.775814 54.2221754 169.388372 69.6502456 169.336744 54.2221754 171.20093 54.2221754 171.252558 73.8916491 168.784186 73.8916491 164.991628 58.2698947 165.068372 73.8916491"></polygon>
                    <path d="M188.300721,72.0423158 L190.074907,72.0423158 C190.434907,72.0423158 190.739093,71.993193 190.988163,71.8935439 C191.236535,71.7945965 191.435372,71.6156491 191.585372,71.3567018 C191.735372,71.0984561 191.844907,70.7489825 191.913279,70.3096842 C191.981651,69.8696842 192.016535,69.3138947 192.016535,68.6409123 L192.016535,59.4079298 C192.016535,58.753193 191.984442,58.2135439 191.919558,57.7910877 C191.855372,57.3693333 191.752814,57.0352982 191.611186,56.7889825 C191.469558,56.5433684 191.285372,56.3707368 191.058628,56.2717895 C190.831186,56.1728421 190.550721,56.118807 190.216535,56.110386 L188.300721,56.110386 L188.300721,72.0423158 Z M190.113279,54.2486316 C190.910721,54.2486316 191.553279,54.3798596 192.041651,54.6430175 C192.530721,54.9054737 192.909558,55.2675789 193.179558,55.7286316 C193.449558,56.190386 193.631651,56.7335439 193.725837,57.3581053 C193.820721,57.9833684 193.867465,58.6626667 193.867465,59.3952982 L193.867465,68.6668772 C193.867465,69.4086316 193.820721,70.0963509 193.725837,70.7293333 C193.631651,71.3637193 193.449558,71.9152982 193.179558,72.3847719 C192.909558,72.8549474 192.528628,73.2233684 192.03607,73.4907368 C191.542116,73.7581053 190.898163,73.8914386 190.100721,73.8914386 L186.436535,73.8914386 L186.436535,54.2486316 L190.113279,54.2486316 Z" id="Fill-37" fill="#FFFFFF"></path>
                    <path d="M210.312209,67.7232281 L213.552209,67.7232281 L211.932209,56.1884912 L210.312209,67.7232281 Z M210.608023,54.2221754 L213.268953,54.2221754 L216.315698,73.8916491 L214.425698,73.8916491 L213.808953,69.5077895 L210.068023,69.5077895 L209.450581,73.8916491 L207.548023,73.8916491 L210.608023,54.2221754 Z" id="Fill-39" fill="#FFFFFF"></path>
                    <polygon id="Fill-41" fill="#FFFFFF" points="232.927326 56.1103158 232.927326 73.8913684 231.06314 73.8913684 231.06314 56.1103158 228.170581 56.1103158 228.170581 54.2485614 235.83314 54.2485614 235.83314 56.1103158"></polygon>
                    <polygon id="Fill-43" fill="#FFFFFF" points="250.040233 73.8919298 251.916977 73.8919298 251.916977 54.2224561 250.040233 54.2224561"></polygon>
                    <path d="M270.752651,55.8646316 C270.323581,55.8646316 269.983116,55.937614 269.730558,56.0842807 C269.477302,56.2309474 269.284744,56.449193 269.152186,56.737614 C269.01893,57.0267368 268.933116,57.3825263 268.894744,57.8042807 C268.856372,58.2267368 268.836837,58.7144561 268.836837,59.2660351 L268.836837,68.8744561 C268.836837,69.3909474 268.851488,69.8590175 268.881488,70.2772632 C268.911488,70.6955088 268.991023,71.049193 269.120093,71.337614 C269.248465,71.6267368 269.441023,71.8505965 269.698465,72.0098947 C269.955209,72.1698947 270.306837,72.249193 270.752651,72.249193 L270.765209,72.249193 C271.193581,72.249193 271.534744,72.1762105 271.787302,72.0295439 C272.040558,71.8828772 272.233116,71.6653333 272.366372,71.3762105 C272.49893,71.0877895 272.584744,70.732 272.623116,70.3095439 C272.661488,69.8870877 272.681023,69.4000702 272.681023,68.8477895 L272.681023,59.2527018 C272.681023,58.7355088 272.663581,58.2681404 272.629395,57.8498947 C272.595209,57.4316491 272.513581,57.0758596 272.385209,56.7832281 C272.256837,56.4898947 272.065674,56.2632281 271.813116,56.1039298 C271.560558,55.9446316 271.211023,55.8646316 270.765209,55.8646316 L270.752651,55.8646316 Z M270.752651,54.0155088 L270.765209,54.0021754 C271.588465,54.0021754 272.248465,54.1425263 272.745209,54.4225263 C273.241953,54.7032281 273.626372,55.0821754 273.895674,55.5607719 C274.166372,56.0393684 274.343581,56.5951579 274.429395,57.2288421 C274.515209,57.8625263 274.558465,58.5284912 274.558465,59.2274386 L274.558465,68.8744561 C274.558465,69.5979649 274.513116,70.2772632 274.423116,70.9109474 C274.333116,71.5446316 274.153116,72.0983158 273.883116,72.5727018 C273.613116,73.046386 273.229395,73.4218246 272.732651,73.697614 C272.235209,73.9734035 271.579395,74.1116491 270.765209,74.1116491 L270.752651,74.0983158 L270.752651,74.1116491 C269.929395,74.1116491 269.270093,73.9712982 268.772651,73.6912982 C268.275209,73.4112982 267.893581,73.0316491 267.628465,72.5530526 C267.362651,72.0744561 267.186837,71.5186667 267.101023,70.8849825 C267.015907,70.2512982 266.972651,69.5853333 266.972651,68.8870877 L266.972651,59.2400702 C266.972651,58.5158596 267.015907,57.8365614 267.101023,57.2028772 C267.186837,56.569193 267.364744,56.0155088 267.634744,55.5418246 C267.904744,55.0674386 268.288465,54.6927018 268.785209,54.4162105 C269.282651,54.1404211 269.938465,54.0021754 270.752651,54.0021754 L270.752651,54.0155088 Z" id="Fill-45" fill="#FFFFFF"></path>
                    <polygon id="Fill-46" fill="#FFFFFF" points="289.601093 73.8916491 289.601093 54.2221754 292.172721 54.2221754 295.785279 69.6502456 295.733651 54.2221754 297.597837 54.2221754 297.649465 73.8916491 295.181093 73.8916491 291.388535 58.2698947 291.465279 73.8916491"></polygon>
                </g>
            </g>
        </g>
    </g>
</svg>