<?xml version="1.0" encoding="UTF-8"?>
<svg width="25px" height="25px" viewBox="0 0 25 25" version="1.1" xmlns="http://www.w3.org/2000/svg" xmlns:xlink="http://www.w3.org/1999/xlink">
    <!-- Generator: Sketch 64 (93537) - https://sketch.com -->
    <title>Path</title>
    <desc>Created with Sketch.</desc>
    <g id="Page-1" stroke="none" stroke-width="1" fill="none" fill-rule="evenodd">
        <g id="Desktop-HD" transform="translate(-26.000000, -351.000000)" fill="#3BA361">
            <path d="M47.9456055,351 C49.6313965,351 51,352.368652 51,354.054395 L51,372.945605 C51,374.631348 49.6313477,376 47.9456055,376 L42.7469727,376 L42.7469727,366.580322 L45.9989258,366.580322 L46.6176758,362.546094 L42.7469727,362.546094 L42.7469727,359.928076 C42.7469727,358.824414 43.2876465,357.748584 45.0213867,357.748584 L46.78125,357.748584 L46.78125,354.314014 C46.78125,354.314014 45.184082,354.041455 43.6571289,354.041455 C40.4692383,354.041455 38.3856445,355.973535 38.3856445,359.471338 L38.3856445,362.546094 L34.842041,362.546094 L34.842041,366.580322 L38.3856445,366.580322 L38.3856445,376 L29.0543945,376 C27.3686523,376 26,374.631348 26,372.945605 L26,354.054395 C26,352.368652 27.3686035,351 29.0543945,351 L47.9456055,351 Z" id="Path"></path>
        </g>
    </g>
</svg>