<?xml version="1.0" encoding="UTF-8"?>
<svg width="25px" height="25px" viewBox="0 0 25 25" version="1.1" xmlns="http://www.w3.org/2000/svg" xmlns:xlink="http://www.w3.org/1999/xlink">
    <!-- Generator: Sketch 64 (93537) - https://sketch.com -->
    <title>Shape</title>
    <desc>Created with Sketch.</desc>
    <g id="Page-1" stroke="none" stroke-width="1" fill="none" fill-rule="evenodd">
        <g id="Desktop-HD" transform="translate(-26.000000, -487.000000)" fill="#3BA361">
            <path d="M47.9456055,487 C49.6313965,487 51,488.368652 51,490.054395 L51,508.945605 C51,510.631348 49.6313477,512 47.9456055,512 L29.0543945,512 C27.3686523,512 26,510.631348 26,508.945605 L26,490.054395 C26,488.368652 27.3686035,487 29.0543945,487 L47.9456055,487 Z M38.5,490.955078 C36.1793457,490.955078 35.8883301,490.964893 34.9769531,491.006494 C34.0674316,491.047998 33.4462891,491.192432 32.9027344,491.403711 C32.3408203,491.62207 31.8643066,491.914258 31.3892578,492.389258 C30.914209,492.864307 30.6220215,493.340869 30.4036621,493.902734 C30.1924316,494.446289 30.047998,495.067432 30.0064453,495.976953 C29.9648926,496.88833 29.9550781,497.179346 29.9550781,499.5 C29.9550781,501.820654 29.9648926,502.11167 30.0064453,503.023047 C30.047998,503.932568 30.1924316,504.553711 30.4036621,505.097266 C30.6220215,505.659131 30.914209,506.135693 31.3892578,506.610742 C31.8643066,507.085791 32.3408203,507.377979 32.9027344,507.596338 C33.4462891,507.807568 34.0674316,507.952002 34.9769531,507.993506 C35.8883301,508.035107 36.1793457,508.044922 38.5,508.044922 C40.8206543,508.044922 41.1116699,508.035107 42.0230469,507.993506 C42.9325684,507.952002 43.5537109,507.807568 44.0972656,507.596338 C44.6591309,507.377979 45.1356934,507.085791 45.6107422,506.610742 C46.085791,506.135693 46.3779785,505.659131 46.5963379,505.097266 C46.8075684,504.553711 46.952002,503.932568 46.9935059,503.023047 C47.0351074,502.11167 47.0449219,501.820654 47.0449219,499.5 C47.0449219,497.179346 47.0351074,496.88833 46.9935059,495.976953 C46.952002,495.067432 46.8075684,494.446289 46.5963379,493.902734 C46.3779785,493.340869 46.085791,492.864307 45.6107422,492.389258 C45.1356934,491.914258 44.6591309,491.62207 44.0972656,491.403711 C43.5537109,491.192432 42.9325684,491.047998 42.0230469,491.006494 C41.1116699,490.964893 40.8206543,490.955078 38.5,490.955078 Z M38.5,492.494727 C40.7815918,492.494727 41.0518555,492.503418 41.9528809,492.544531 C42.7859863,492.582568 43.2384277,492.721777 43.5395508,492.838721 C43.9384277,492.99375 44.2230469,493.178955 44.5220703,493.47793 C44.8210938,493.776953 45.00625,494.061621 45.1612793,494.460449 C45.2782715,494.761572 45.4174805,495.214014 45.4554688,496.047119 C45.496582,496.948145 45.5053223,497.218408 45.5053223,499.5 C45.5053223,501.781592 45.496582,502.051855 45.4554688,502.952881 C45.4174805,503.785986 45.2782715,504.238428 45.1612793,504.539551 C45.00625,504.938428 44.8210938,505.223047 44.5220703,505.52207 C44.2230469,505.821094 43.9384277,506.00625 43.5395508,506.161279 C43.2384277,506.278271 42.7859863,506.41748 41.9528809,506.455469 C41.052002,506.496582 40.7817383,506.505322 38.5,506.505322 C36.2182617,506.505322 35.9480469,506.496582 35.0471191,506.455469 C34.2140137,506.41748 33.7615723,506.278271 33.4604492,506.161279 C33.0615723,506.00625 32.7769531,505.821094 32.4779297,505.52207 C32.1789062,505.223047 31.9937012,504.938428 31.8387207,504.539551 C31.7217285,504.238428 31.5825195,503.785986 31.5444824,502.952881 C31.5033691,502.051855 31.4946777,501.781592 31.4946777,499.5 C31.4946777,497.218408 31.5033691,496.948145 31.5444824,496.047119 C31.5825195,495.214014 31.7217285,494.761572 31.8387207,494.460449 C31.9937012,494.061621 32.1789062,493.776953 32.4779297,493.47793 C32.7769531,493.178955 33.0615723,492.99375 33.4604492,492.838721 C33.7615723,492.721777 34.2140137,492.582568 35.0471191,492.544531 C35.9481445,492.503418 36.2184082,492.494727 38.5,492.494727 Z M38.5,495.112061 C36.0766113,495.112061 34.1120605,497.076611 34.1120605,499.5 C34.1120605,501.923389 36.0766113,503.887939 38.5,503.887939 C40.9233887,503.887939 42.8879395,501.923389 42.8879395,499.5 C42.8879395,497.076611 40.9233887,495.112061 38.5,495.112061 Z M38.5,502.348291 C36.9269043,502.348291 35.651709,501.073096 35.651709,499.5 C35.651709,497.926904 36.9269043,496.651709 38.5,496.651709 C40.0730957,496.651709 41.348291,497.926904 41.348291,499.5 C41.348291,501.073096 40.0730957,502.348291 38.5,502.348291 L38.5,502.348291 Z M44.0867188,494.938721 C44.0867188,495.505029 43.6275879,495.964063 43.0612793,495.964063 C42.4950195,495.964063 42.0359375,495.505029 42.0359375,494.938721 C42.0359375,494.372412 42.4950195,493.91333 43.0612793,493.91333 C43.6275879,493.91333 44.0867188,494.372412 44.0867188,494.938721 Z" id="Shape"></path>
        </g>
    </g>
</svg>