<?xml version="1.0" encoding="UTF-8"?>
<svg width="69px" height="50px" viewBox="0 0 69 50" version="1.1" xmlns="http://www.w3.org/2000/svg" xmlns:xlink="http://www.w3.org/1999/xlink">
    <!-- Generator: Sketch 64 (93537) - https://sketch.com -->
    <title>Combined Shape</title>
    <desc>Created with Sketch.</desc>
    <g id="Page-1" stroke="none" stroke-width="1" fill="none" fill-rule="evenodd">
        <g id="Desktop-HD" transform="translate(-686.000000, -5837.000000)" fill="#FFFFFF">
            <path d="M718.761754,5846.165 C719.559685,5847.64785 720.135368,5849.23284 720.476024,5850.86925 C722.150596,5843.02651 729.099393,5837.12572 737.449063,5837.081 C740.351548,5837.06546 743.212084,5837.77404 745.771716,5839.14259 C754.291335,5843.69777 757.505151,5854.29699 752.949974,5862.81661 C751.583882,5865.37163 749.604547,5867.54733 747.189743,5869.14828 L720.841,5886.617 L720.841614,5886.9372 L720.6,5886.777 L720.263131,5887 L720.261,5886.552 L693.793709,5869.00507 C685.757308,5863.67713 683.561671,5852.84318 688.889618,5844.80678 C690.478742,5842.40983 692.635383,5840.44256 695.167888,5839.0798 C703.63968,5834.52106 714.203014,5837.69321 718.761754,5846.165 Z" id="Combined-Shape"></path>
        </g>
    </g>
</svg>